<svg width="236" height="68" viewBox="0 0 236 68" fill="none" xmlns="http://www.w3.org/2000/svg">
<path d="M5.06931 58.4909V67.2181H4.01249V59.5988H3.96135L1.83067 61.0136V59.9397L4.01249 58.4909H5.06931Z" fill="white"/>
<path d="M29.6372 0.00012207H27.4419V56.2407H29.6372V0.00012207Z" fill="white"/>
<path d="M34.0279 0.00012207H31.8326V56.2407H34.0279V0.00012207Z" fill="white"/>
<path d="M2.19535 0.00012207H0V56.2407H2.19535V0.00012207Z" fill="white"/>
<path d="M6.58603 0.00012207H4.39069V56.2407H6.58603V0.00012207Z" fill="white"/>
<path d="M17.5628 0.00012207H8.7814V51.1279H17.5628V0.00012207Z" fill="white"/>
<path d="M24.1489 0.00012207H20.8558V51.0001H24.1489V0.00012207Z" fill="white"/>
<path d="M40.614 0.00012207H38.4186V51.1279H40.614V0.00012207Z" fill="white"/>
<path d="M49.3954 0.00012207H45.0047V51.1279H49.3954V0.00012207Z" fill="white"/>
<path d="M64.7628 0.00012207H62.5675V51.1279H64.7628V0.00012207Z" fill="white"/>
<path d="M75.7396 0.00012207H69.1535V51.1279H75.7396V0.00012207Z" fill="white"/>
<path d="M80.1303 0.00012207H77.9349V51.1279H80.1303V0.00012207Z" fill="white"/>
<path d="M86.7163 0.00012207H82.3256V51.1279H86.7163V0.00012207Z" fill="white"/>
<path d="M95.4977 0.00012207H93.3023V51.1279H95.4977V0.00012207Z" fill="white"/>
<path d="M106.474 0.00012207H104.279V51.1279H106.474V0.00012207Z" fill="white"/>
<path d="M110.865 0.00012207H108.67V51.1279H110.865V0.00012207Z" fill="white"/>
<path d="M117.451 0.00012207H115.256V51.1279H117.451V0.00012207Z" fill="white"/>
<path d="M126.233 0.00012207H124.037V51.1279H126.233V0.00012207Z" fill="white"/>
<path d="M58.9086 67.2181V66.4511L61.7893 63.2977C62.1274 62.9284 62.4058 62.6073 62.6245 62.3346C62.8433 62.059 63.0052 61.8005 63.1103 61.559C63.2183 61.3147 63.2722 61.059 63.2722 60.792C63.2722 60.4852 63.1984 60.2196 63.0507 59.9951C62.9058 59.7707 62.7069 59.5974 62.4541 59.4752C62.2012 59.3531 61.9171 59.292 61.6018 59.292C61.2666 59.292 60.974 59.3616 60.724 59.5008C60.4768 59.6372 60.285 59.8289 60.1487 60.0761C60.0151 60.3233 59.9484 60.613 59.9484 60.9454H58.9427C58.9427 60.434 59.0606 59.9852 59.2964 59.5988C59.5322 59.2125 59.8532 58.9113 60.2595 58.6954C60.6686 58.4795 61.1274 58.3715 61.6359 58.3715C62.1472 58.3715 62.6004 58.4795 62.9953 58.6954C63.3901 58.9113 63.6998 59.2025 63.9242 59.569C64.1487 59.9355 64.2609 60.3431 64.2609 60.792C64.2609 61.113 64.2026 61.4269 64.0862 61.7338C63.9725 62.0377 63.7737 62.3772 63.4896 62.7522C63.2083 63.1244 62.8177 63.5789 62.3177 64.1159L60.3575 66.2125V66.2806H64.4143V67.2181H58.9086ZM69.1231 67.3375C68.5606 67.3375 68.0592 67.2409 67.6188 67.0477C67.1813 66.8545 66.8333 66.586 66.5748 66.2423C66.3191 65.8957 66.1799 65.4937 66.1572 65.0363H67.2311C67.2538 65.3176 67.3504 65.5605 67.5208 65.765C67.6913 65.9667 67.9143 66.123 68.1899 66.2338C68.4654 66.3446 68.7708 66.4 69.1061 66.4C69.4811 66.4 69.8134 66.3346 70.1032 66.2039C70.393 66.0733 70.6203 65.8914 70.785 65.6585C70.9498 65.4255 71.0322 65.1556 71.0322 64.8488C71.0322 64.5278 70.9526 64.2451 70.7936 64.0008C70.6345 63.7537 70.4015 63.5605 70.0947 63.4213C69.7879 63.2821 69.4129 63.2125 68.9697 63.2125H68.2708V62.275H68.9697C69.3163 62.275 69.6203 62.2125 69.8816 62.0875C70.1458 61.9625 70.3518 61.7863 70.4995 61.559C70.6501 61.3318 70.7254 61.0647 70.7254 60.7579C70.7254 60.4625 70.66 60.2054 70.5293 59.9866C70.3987 59.7679 70.214 59.5974 69.9754 59.4752C69.7396 59.3531 69.4612 59.292 69.1401 59.292C68.839 59.292 68.5549 59.3474 68.2879 59.4582C68.0237 59.5662 67.8078 59.7238 67.6401 59.9312C67.4725 60.1358 67.3816 60.3829 67.3674 60.6727H66.3447C66.3617 60.2153 66.4995 59.8147 66.758 59.471C67.0166 59.1244 67.3546 58.8545 67.7722 58.6613C68.1927 58.4681 68.6543 58.3715 69.1572 58.3715C69.697 58.3715 70.16 58.4809 70.5464 58.6997C70.9328 58.9156 71.2296 59.2011 71.437 59.5562C71.6444 59.9113 71.7481 60.2948 71.7481 60.7068C71.7481 61.1983 71.6188 61.6173 71.3603 61.9639C71.1046 62.3105 70.7566 62.5505 70.3163 62.684V62.7522C70.8674 62.8431 71.2978 63.0775 71.6075 63.4554C71.9171 63.8304 72.072 64.2948 72.072 64.8488C72.072 65.3233 71.9427 65.7494 71.6842 66.1272C71.4285 66.5022 71.0791 66.7977 70.6359 67.0136C70.1927 67.2295 69.6884 67.3375 69.1231 67.3375ZM73.6103 65.4284V64.559L77.4455 58.4909H78.0762V59.8375H77.6501L74.7524 64.4227V64.4909H79.9171V65.4284H73.6103ZM77.7183 67.2181V65.1642V64.7593V58.4909H78.724V67.2181H77.7183ZM84.2414 67.3375C83.7414 67.3375 83.2911 67.238 82.8905 67.0392C82.4899 66.8403 82.1689 66.5676 81.9274 66.221C81.686 65.8744 81.5539 65.4795 81.5311 65.0363H82.5539C82.5936 65.4312 82.7726 65.7579 83.0908 66.0164C83.4118 66.2721 83.7953 66.4 84.2414 66.4C84.5993 66.4 84.9175 66.3162 85.1959 66.1485C85.4771 65.9809 85.6973 65.7508 85.8564 65.4582C86.0183 65.1627 86.0993 64.8289 86.0993 64.4568C86.0993 64.0761 86.0155 63.7366 85.8479 63.4383C85.6831 63.1372 85.4558 62.9 85.1661 62.7267C84.8763 62.5534 84.5453 62.4653 84.1732 62.4625C83.9061 62.4596 83.632 62.5008 83.3507 62.586C83.0695 62.6684 82.8379 62.775 82.6561 62.9056L81.6675 62.7863L82.1959 58.4909H86.73V59.4284H83.0823L82.7754 62.0022H82.8266C83.0056 61.8602 83.23 61.7423 83.4999 61.6485C83.7698 61.5548 84.051 61.5079 84.3436 61.5079C84.8777 61.5079 85.3536 61.6358 85.7712 61.8914C86.1916 62.1443 86.5212 62.4909 86.7598 62.9312C87.0013 63.3715 87.122 63.8744 87.122 64.4397C87.122 64.9965 86.997 65.4937 86.747 65.9312C86.4999 66.3659 86.159 66.7096 85.7243 66.9625C85.2896 67.2125 84.7953 67.3375 84.2414 67.3375ZM91.7126 67.3375C91.3546 67.3318 90.9967 67.2636 90.6387 67.1329C90.2808 67.0022 89.9541 66.7821 89.6586 66.4724C89.3632 66.1599 89.1259 65.738 88.947 65.2068C88.768 64.6727 88.6785 64.0022 88.6785 63.1954C88.6785 62.4227 88.7509 61.738 88.8958 61.1414C89.0407 60.542 89.2509 60.0377 89.5265 59.6287C89.8021 59.2167 90.1345 58.9042 90.5237 58.6912C90.9157 58.4781 91.3575 58.3715 91.849 58.3715C92.3376 58.3715 92.7722 58.4696 93.1529 58.6656C93.5365 58.8588 93.849 59.1287 94.0904 59.4752C94.3319 59.8218 94.4882 60.221 94.5592 60.6727H93.5194C93.4228 60.2806 93.2353 59.9554 92.9569 59.6968C92.6785 59.4383 92.3092 59.309 91.849 59.309C91.1728 59.309 90.6401 59.6031 90.2509 60.1912C89.8646 60.7792 89.67 61.6045 89.6671 62.667H89.7353C89.8944 62.4255 90.0833 62.2196 90.3021 62.0491C90.5237 61.8758 90.768 61.7423 91.035 61.6485C91.3021 61.5548 91.5847 61.5079 91.883 61.5079C92.383 61.5079 92.8404 61.6329 93.2552 61.8829C93.67 62.1301 94.0024 62.4724 94.2524 62.9099C94.5024 63.3446 94.6274 63.8431 94.6274 64.4056C94.6274 64.9454 94.5066 65.4397 94.2651 65.8886C94.0237 66.3346 93.6842 66.6897 93.2467 66.9539C92.812 67.2153 92.3007 67.3431 91.7126 67.3375ZM91.7126 66.4C92.0705 66.4 92.3916 66.3105 92.6757 66.1315C92.9626 65.9525 93.1884 65.7125 93.3532 65.4113C93.5208 65.1102 93.6046 64.775 93.6046 64.4056C93.6046 64.0448 93.5237 63.7167 93.3617 63.4213C93.2026 63.123 92.9825 62.8858 92.7012 62.7096C92.4228 62.5335 92.1046 62.4454 91.7467 62.4454C91.4768 62.4454 91.2254 62.4994 90.9924 62.6073C90.7595 62.7125 90.5549 62.8573 90.3788 63.042C90.2055 63.2267 90.0691 63.4383 89.9697 63.6769C89.8703 63.9127 89.8205 64.1613 89.8205 64.4227C89.8205 64.7693 89.9015 65.0931 90.0634 65.3943C90.2282 65.6954 90.4526 65.9383 90.7367 66.123C91.0237 66.3076 91.349 66.4 91.7126 66.4ZM96.5759 67.2181L100.479 59.4965V59.4284H95.9793V58.4909H101.57V59.4795L97.6838 67.2181H96.5759Z" fill="white"/>
<path d="M130.623 0.00012207H128.428V56.2407H130.623V0.00012207Z" fill="white"/>
<path d="M135.014 0.00012207H132.819V56.2407H135.014V0.00012207Z" fill="white"/>
<path d="M139.405 0.00012207H137.209V51.1279H139.405V0.00012207Z" fill="white"/>
<path d="M145.991 0.00012207H143.795V51.1279H145.991V0.00012207Z" fill="white"/>
<path d="M159.163 0.00012207H152.577V51.1279H159.163V0.00012207Z" fill="white"/>
<path d="M163.554 0.00012207H161.358V51.1279H163.554V0.00012207Z" fill="white"/>
<path d="M172.335 0.00012207H167.944V51.1279H172.335V0.00012207Z" fill="white"/>
<path d="M181.116 0.00012207H176.726V51.1279H181.116V0.00012207Z" fill="white"/>
<path d="M189.898 0.00012207H183.312V51.1279H189.898V0.00012207Z" fill="white"/>
<path d="M196.484 0.00012207H194.288V51.1279H196.484V0.00012207Z" fill="white"/>
<path d="M203.07 0.00012207H198.679V51.1279H203.07V0.00012207Z" fill="white"/>
<path d="M209.656 0.00012207H205.265V51.1279H209.656V0.00012207Z" fill="white"/>
<path d="M216.242 0.00012207H214.047V51.1279H216.242V0.00012207Z" fill="white"/>
<path d="M220.633 0.00012207H218.437V51.1279H220.633V0.00012207Z" fill="white"/>
<path d="M165.653 67.3375C165.068 67.3375 164.551 67.2338 164.102 67.0264C163.656 66.8162 163.308 66.5278 163.058 66.1613C162.808 65.792 162.684 65.3715 162.687 64.9C162.684 64.5306 162.757 64.1897 162.904 63.8772C163.052 63.5619 163.254 63.2991 163.51 63.0889C163.768 62.8758 164.056 62.7409 164.375 62.684V62.6329C163.957 62.525 163.625 62.2906 163.377 61.9298C163.13 61.5662 163.008 61.1528 163.011 60.6897C163.008 60.2465 163.12 59.8502 163.348 59.5008C163.575 59.1514 163.887 58.8758 164.285 58.6741C164.686 58.4724 165.142 58.3715 165.653 58.3715C166.159 58.3715 166.61 58.4724 167.008 58.6741C167.406 58.8758 167.718 59.1514 167.946 59.5008C168.176 59.8502 168.292 60.2465 168.295 60.6897C168.292 61.1528 168.166 61.5662 167.916 61.9298C167.669 62.2906 167.341 62.525 166.931 62.6329V62.684C167.247 62.7409 167.531 62.8758 167.784 63.0889C168.037 63.2991 168.238 63.5619 168.389 63.8772C168.539 64.1897 168.616 64.5306 168.619 64.9C168.616 65.3715 168.488 65.792 168.235 66.1613C167.985 66.5278 167.637 66.8162 167.191 67.0264C166.748 67.2338 166.235 67.3375 165.653 67.3375ZM165.653 66.4C166.048 66.4 166.389 66.336 166.676 66.2082C166.963 66.0804 167.184 65.9 167.341 65.667C167.497 65.434 167.576 65.1613 167.579 64.8488C167.576 64.5193 167.491 64.2281 167.324 63.9752C167.156 63.7224 166.927 63.5235 166.637 63.3787C166.35 63.2338 166.022 63.1613 165.653 63.1613C165.281 63.1613 164.949 63.2338 164.656 63.3787C164.366 63.5235 164.137 63.7224 163.97 63.9752C163.805 64.2281 163.724 64.5193 163.727 64.8488C163.724 65.1613 163.799 65.434 163.953 65.667C164.109 65.9 164.332 66.0804 164.622 66.2082C164.912 66.336 165.255 66.4 165.653 66.4ZM165.653 62.2579C165.966 62.2579 166.243 62.1954 166.484 62.0704C166.728 61.9454 166.92 61.7707 167.059 61.5463C167.199 61.3218 167.27 61.059 167.272 60.7579C167.27 60.4625 167.2 60.2054 167.064 59.9866C166.927 59.765 166.738 59.5946 166.497 59.4752C166.255 59.3531 165.974 59.292 165.653 59.292C165.326 59.292 165.041 59.3531 164.797 59.4752C164.552 59.5946 164.363 59.765 164.23 59.9866C164.096 60.2054 164.031 60.4625 164.034 60.7579C164.031 61.059 164.098 61.3218 164.234 61.5463C164.373 61.7707 164.565 61.9454 164.809 62.0704C165.054 62.1954 165.335 62.2579 165.653 62.2579ZM173.031 58.3715C173.388 58.3744 173.746 58.4426 174.104 58.5761C174.462 58.7096 174.789 58.9312 175.085 59.2409C175.38 59.5477 175.617 59.9667 175.796 60.498C175.975 61.0292 176.065 61.6954 176.065 62.4965C176.065 63.2721 175.991 63.961 175.843 64.5633C175.698 65.1627 175.488 65.6684 175.212 66.0804C174.94 66.4923 174.607 66.8048 174.215 67.0179C173.826 67.2309 173.386 67.3375 172.894 67.3375C172.406 67.3375 171.969 67.2409 171.586 67.0477C171.205 66.8517 170.893 66.5804 170.648 66.2338C170.407 65.8843 170.252 65.4795 170.184 65.0193H171.224C171.317 65.4198 171.504 65.7508 171.782 66.0122C172.063 66.2707 172.434 66.4 172.894 66.4C173.567 66.4 174.099 66.1059 174.488 65.5179C174.88 64.9298 175.076 64.0988 175.076 63.025H175.008C174.849 63.2636 174.66 63.4696 174.441 63.6429C174.222 63.8162 173.979 63.9497 173.712 64.0434C173.445 64.1372 173.161 64.184 172.86 64.184C172.36 64.184 171.901 64.0605 171.484 63.8133C171.069 63.5633 170.737 63.221 170.487 62.7863C170.239 62.3488 170.116 61.8488 170.116 61.2863C170.116 60.7522 170.235 60.2636 170.474 59.8204C170.715 59.3744 171.053 59.0193 171.488 58.7551C171.925 58.4909 172.44 58.363 173.031 58.3715ZM173.031 59.309C172.673 59.309 172.35 59.3985 172.063 59.5775C171.779 59.7537 171.553 59.9923 171.386 60.2934C171.221 60.5917 171.138 60.9227 171.138 61.2863C171.138 61.65 171.218 61.9809 171.377 62.2792C171.539 62.5747 171.759 62.8105 172.038 62.9866C172.319 63.1599 172.638 63.2465 172.996 63.2465C173.266 63.2465 173.518 63.194 173.751 63.0889C173.984 62.9809 174.187 62.8346 174.36 62.65C174.536 62.4625 174.674 62.2508 174.773 62.015C174.873 61.7764 174.923 61.5278 174.923 61.2693C174.923 60.9284 174.84 60.6088 174.675 60.3105C174.513 60.0122 174.289 59.7707 174.002 59.586C173.718 59.4014 173.394 59.309 173.031 59.309ZM180.809 58.4909V67.2181H179.752V59.5988H179.701L177.57 61.0136V59.9397L179.752 58.4909H180.809ZM186.165 67.3375C185.523 67.3375 184.976 67.1627 184.524 66.8133C184.073 66.461 183.728 65.9511 183.489 65.2835C183.25 64.613 183.131 63.8034 183.131 62.8545C183.131 61.9113 183.25 61.1059 183.489 60.4383C183.73 59.7679 184.077 59.2565 184.529 58.9042C184.983 58.5491 185.529 58.3715 186.165 58.3715C186.801 58.3715 187.346 58.5491 187.797 58.9042C188.252 59.2565 188.598 59.7679 188.837 60.4383C189.078 61.1059 189.199 61.9113 189.199 62.8545C189.199 63.8034 189.08 64.613 188.841 65.2835C188.603 65.9511 188.257 66.461 187.806 66.8133C187.354 67.1627 186.807 67.3375 186.165 67.3375ZM186.165 66.4C186.801 66.4 187.296 66.0931 187.648 65.4795C188 64.8659 188.176 63.9909 188.176 62.8545C188.176 62.0988 188.096 61.4554 187.934 60.9241C187.775 60.3929 187.544 59.988 187.243 59.7096C186.945 59.4312 186.586 59.292 186.165 59.292C185.534 59.292 185.042 59.6031 184.686 60.2252C184.331 60.8446 184.154 61.721 184.154 62.8545C184.154 63.6102 184.233 64.2522 184.392 64.7806C184.551 65.309 184.78 65.711 185.078 65.9866C185.38 66.2622 185.742 66.4 186.165 66.4ZM190.819 67.2181V66.4511L193.699 63.2977C194.037 62.9284 194.316 62.6073 194.534 62.3346C194.753 62.059 194.915 61.8005 195.02 61.559C195.128 61.3147 195.182 61.059 195.182 60.792C195.182 60.4852 195.108 60.2196 194.961 59.9951C194.816 59.7707 194.617 59.5974 194.364 59.4752C194.111 59.3531 193.827 59.292 193.512 59.292C193.176 59.292 192.884 59.3616 192.634 59.5008C192.387 59.6372 192.195 59.8289 192.059 60.0761C191.925 60.3233 191.858 60.613 191.858 60.9454H190.853C190.853 60.434 190.971 59.9852 191.206 59.5988C191.442 59.2125 191.763 58.9113 192.169 58.6954C192.578 58.4795 193.037 58.3715 193.546 58.3715C194.057 58.3715 194.51 58.4795 194.905 58.6954C195.3 58.9113 195.61 59.2025 195.834 59.569C196.059 59.9355 196.171 60.3431 196.171 60.792C196.171 61.113 196.113 61.4269 195.996 61.7338C195.882 62.0377 195.684 62.3772 195.399 62.7522C195.118 63.1244 194.728 63.5789 194.228 64.1159L192.267 66.2125V66.2806H196.324V67.2181H190.819ZM200.982 67.3375C200.624 67.3318 200.266 67.2636 199.908 67.1329C199.55 67.0022 199.223 66.7821 198.928 66.4724C198.632 66.1599 198.395 65.738 198.216 65.2068C198.037 64.6727 197.948 64.0022 197.948 63.1954C197.948 62.4227 198.02 61.738 198.165 61.1414C198.31 60.542 198.52 60.0377 198.796 59.6287C199.071 59.2167 199.404 58.9042 199.793 58.6912C200.185 58.4781 200.627 58.3715 201.118 58.3715C201.607 58.3715 202.042 58.4696 202.422 58.6656C202.806 58.8588 203.118 59.1287 203.36 59.4752C203.601 59.8218 203.757 60.221 203.828 60.6727H202.789C202.692 60.2806 202.505 59.9554 202.226 59.6968C201.948 59.4383 201.578 59.309 201.118 59.309C200.442 59.309 199.909 59.6031 199.52 60.1912C199.134 60.7792 198.939 61.6045 198.936 62.667H199.005C199.164 62.4255 199.353 62.2196 199.571 62.0491C199.793 61.8758 200.037 61.7423 200.304 61.6485C200.571 61.5548 200.854 61.5079 201.152 61.5079C201.652 61.5079 202.11 61.6329 202.524 61.8829C202.939 62.1301 203.272 62.4724 203.522 62.9099C203.772 63.3446 203.897 63.8431 203.897 64.4056C203.897 64.9454 203.776 65.4397 203.534 65.8886C203.293 66.3346 202.953 66.6897 202.516 66.9539C202.081 67.2153 201.57 67.3431 200.982 67.3375ZM200.982 66.4C201.34 66.4 201.661 66.3105 201.945 66.1315C202.232 65.9525 202.458 65.7125 202.623 65.4113C202.79 65.1102 202.874 64.775 202.874 64.4056C202.874 64.0448 202.793 63.7167 202.631 63.4213C202.472 63.123 202.252 62.8858 201.971 62.7096C201.692 62.5335 201.374 62.4454 201.016 62.4454C200.746 62.4454 200.495 62.4994 200.262 62.6073C200.029 62.7125 199.824 62.8573 199.648 63.042C199.475 63.2267 199.338 63.4383 199.239 63.6769C199.14 63.9127 199.09 64.1613 199.09 64.4227C199.09 64.7693 199.171 65.0931 199.333 65.3943C199.498 65.6954 199.722 65.9383 200.006 66.123C200.293 66.3076 200.618 66.4 200.982 66.4Z" fill="white"/>
<path d="M231.609 0.00012207H229.414V56.2407H231.609V0.00012207Z" fill="white"/>
<path d="M236 0.00012207H233.805V56.2407H236V0.00012207Z" fill="white"/>
</svg>
