<svg width="28" height="20" viewBox="0 0 28 20" fill="none" xmlns="http://www.w3.org/2000/svg">
<path d="M23.2639 8.81614C22.6812 4.22681 18.7505 0.666809 14.0052 0.666809C10.3305 0.666809 7.13854 2.81481 5.68121 6.20014C2.81721 7.05614 0.671875 9.76014 0.671875 12.6668C0.671875 16.3428 3.66254 19.3335 7.33854 19.3335H8.67188V16.6668H7.33854C5.13321 16.6668 3.33854 14.8721 3.33854 12.6668C3.33854 10.7948 4.93721 8.99081 6.90254 8.64548L7.67721 8.50948L7.93321 7.76548C8.87054 5.03081 11.1972 3.33348 14.0052 3.33348C17.6812 3.33348 20.6719 6.32414 20.6719 10.0001V11.3335H22.0052C23.4759 11.3335 24.6719 12.5295 24.6719 14.0001C24.6719 15.4708 23.4759 16.6668 22.0052 16.6668H19.3385V19.3335H22.0052C24.9465 19.3335 27.3385 16.9415 27.3385 14.0001C27.337 12.8048 26.9347 11.6446 26.196 10.7048C25.4574 9.76504 24.425 9.10006 23.2639 8.81614Z" fill="#FAFAFA"/>
<path d="M15.3385 12.6668V7.33348H12.6719V12.6668H8.67188L14.0052 19.3335L19.3385 12.6668H15.3385Z" fill="#FAFAFA"/>
</svg>
